<?xml version="1.0" encoding="UTF-8" standalone="no"?>
<svg
   version="1.1"
   width="1152px"
   height="950px"
   style="shape-rendering:geometricPrecision; text-rendering:geometricPrecision; image-rendering:optimizeQuality; fill-rule:evenodd; clip-rule:evenodd"
   id="svg206"
   sodipodi:docname="LIFE logo recreated.svg"
   inkscape:version="1.1.2 (0a00cf5339, 2022-02-04)"
   inkscape:export-filename="/home/dm0737pe/Downloads/LIFE logo recreated.png"
   inkscape:export-xdpi="100"
   inkscape:export-ydpi="100"
   xmlns:inkscape="http://www.inkscape.org/namespaces/inkscape"
   xmlns:sodipodi="http://sodipodi.sourceforge.net/DTD/sodipodi-0.dtd"
   xmlns="http://www.w3.org/2000/svg"
   xmlns:svg="http://www.w3.org/2000/svg">
  <defs
     id="defs210" />
  <sodipodi:namedview
     id="namedview208"
     pagecolor="#ffffff"
     bordercolor="#666666"
     borderopacity="1.0"
     inkscape:pageshadow="2"
     inkscape:pageopacity="0.0"
     inkscape:pagecheckerboard="0"
     showgrid="false"
     inkscape:zoom="0.70710678"
     inkscape:cx="888.12611"
     inkscape:cy="776.40324"
     inkscape:window-width="1920"
     inkscape:window-height="1043"
     inkscape:window-x="1920"
     inkscape:window-y="0"
     inkscape:window-maximized="1"
     inkscape:current-layer="svg206" />
  <g
     id="g20"
     style="fill:#000000">
    <path
       style="opacity:1;fill:#000000"
       fill="#f9f9f9"
       d="m 308.5,468.5 c 105,1 0,0 105,1 v 63 h -188 v -241 h 83 z"
       id="path18"
       sodipodi:nodetypes="ccccccc" />
  </g>
  <g
     id="g24"
     style="fill:#000000">
    <path
       style="opacity:1;fill:#000000"
       fill="#f9f9f9"
       d="M 747.5,292.5 924.45922,292.73867 886.5,352 l -114,0.5 v 29 l 138,1 -39,58 -99,1 v 31 l 156,1 -39,59 h -200 v -93 l 39,-57 c -39.00098,-0.59844 -40,0 -39.00098,-0.59844 l -0.007,-29.27207 c 18.00823,-0.12949 0,0 18.00823,-0.12949 0,0 0,0 40,-60 z"
       id="path22"
       sodipodi:nodetypes="cccccccccccccccccc" />
  </g>
  <g
     id="g28"
     style="fill:#000000">
    <path
       style="opacity:1;fill:#000000"
       fill="#f9f9f9"
       d="m 414.5,292.5 h 86 v 240 c -85.97869,-0.0936 0,0 -85.97869,-0.0936 39.97869,-62.90645 0,0 39.97869,-62.90645 -40,-1 0,0 -40,-1 z"
       id="path26"
       sodipodi:nodetypes="ccccccc" />
  </g>
  <g
     id="g32"
     style="fill:#000000">
    <path
       style="opacity:1;fill:#000000"
       fill="#f9f9f9"
       d="m 601.5,353.5 v 28 l 87,1 v 58 h -87 v 93 L 518.93549,533.0506 518.5,292.5 h 170 v 60 c -87,1 0,0 -87,1 z"
       id="path30"
       sodipodi:nodetypes="ccccccccccc" />
  </g>
  <text
     xml:space="preserve"
     style="font-style:normal;font-weight:normal;font-size:96.3158px;line-height:1.25;font-family:sans-serif;fill:#000000;fill-opacity:1;stroke:none;stroke-width:0.963158"
     x="220.97748"
     y="592.10675"
     id="text12786"
     transform="scale(0.96315834,1.0382509)"><tspan
       sodipodi:role="line"
       id="tspan12784"
       x="220.97748"
       y="592.10675"
       style="font-style:normal;font-variant:normal;font-weight:normal;font-stretch:normal;font-size:96.3158px;font-family:'Open Sans';-inkscape-font-specification:'Open Sans';stroke-width:0.963158">INTERNATIONAL</tspan></text>
</svg>
